<svg width="1418" height="471" viewBox="0 0 1418 471" fill="none" xmlns="http://www.w3.org/2000/svg">
<path d="M1027.18 23.276C1145.96 38.3465 1260.41 64.646 1331.5 101.583C1402.6 138.225 1429.47 184.914 1413 228.648C1396.53 272.382 1336.7 312.866 1273.41 353.94C1210.12 395.31 1145.1 437.567 1041.92 456.183C939.618 474.8 799.164 470.072 662.178 468.299C526.059 466.526 391.674 467.708 285.033 449.978C177.525 432.248 96.894 395.31 51.81 355.713C5.859 316.116 -4.54504 274.155 2.39096 233.376C10.194 192.597 35.337 153.296 82.155 114.585C128.973 75.875 197.466 37.46 297.171 18.2525C396.876 -0.65951 527.793 -0.364009 656.109 1.99999C783.558 4.06849 907.539 8.2055 1027.18 23.276Z" fill="#00D075"/>
</svg>
