<svg width="340" height="340" viewBox="0 0 340 340" fill="none" xmlns="http://www.w3.org/2000/svg">
<path d="M171.059 67.4939L166.281 72.2712V81.827H151.948L154.063 106.25L132.837 100.937V55.5494C132.837 51.1145 134.599 46.8613 137.735 43.7253C140.871 40.5894 145.124 38.8276 149.559 38.8276C153.994 38.8276 158.247 40.5894 161.383 43.7253C164.519 46.8613 166.281 51.1145 166.281 55.5494V57.94L171.059 67.4939Z" fill="#FEB784"/>
<path d="M130.827 47.333H110.712C108.73 47.333 106.768 47.7233 104.938 48.4816C103.107 49.2399 101.444 50.3514 100.043 51.7525C98.6422 53.1537 97.5309 54.8171 96.7728 56.6477C96.0148 58.4784 95.6247 60.4404 95.625 62.4218V97.6244H100.654C104.655 97.6244 108.493 96.035 111.322 93.2056C114.151 90.3763 115.741 86.5389 115.741 82.5376V62.4218L130.827 57.3936V47.333Z" fill="#6E3C26"/>
<path d="M138.576 69.3872L134.954 65.7654C133.964 64.7764 133.361 63.4664 133.252 62.0716C133.143 60.6768 133.536 59.2889 134.36 58.1583C135.184 57.0277 136.385 56.2289 137.746 55.9057C139.108 55.5826 140.54 55.7565 141.784 56.3961L143.058 57.0502L155.818 40.0429C153.829 39.2393 151.704 38.8275 149.559 38.8303H141.957C141.657 38.8303 141.359 38.8363 141.062 38.8483C128.606 39.349 119.394 50.7024 120.941 63.0733L121.05 63.724C122.503 72.3926 126.624 80.3919 132.839 86.607L138.576 69.3872Z" fill="#6E3C26"/>
<path d="M138.125 308.125L154.855 312.309C156.146 312.631 157.292 313.376 158.111 314.425C158.93 315.473 159.375 316.765 159.375 318.096C159.375 319.678 158.746 321.196 157.627 322.315C156.508 323.434 154.991 324.062 153.408 324.062H116.875C116.875 317.039 118.168 310.076 120.689 303.52L129.134 281.562L143.437 239.062L87.5613 213.274C83.6246 211.457 80.2907 208.55 77.9538 204.898C75.617 201.246 74.3751 197.001 74.375 192.665C74.3749 188.275 75.6482 183.979 78.0406 180.298L83.7914 171.448L108.614 133.271L132.812 95.625L159.375 106.25L165.662 125.109C166.908 128.847 166.89 132.89 165.612 136.617C164.333 140.343 161.865 143.546 158.587 145.731C155.637 147.698 152.171 148.747 148.626 148.747H143.437L122.187 164.685V191.247L159.725 212.099C162.968 213.901 165.806 216.349 168.064 219.292C170.321 222.235 171.951 225.611 172.851 229.21C174.438 235.559 173.673 242.268 170.698 248.098L153.618 281.562L138.125 308.125Z" fill="#FEC093"/>
<path d="M158.585 145.735C155.635 147.701 152.169 148.75 148.624 148.75H143.437L108.614 133.271L119.691 116.045L132.812 95.625L159.375 106.25L160.212 108.754L165.664 125.109C166.908 128.848 166.889 132.892 165.61 136.619C164.331 140.346 161.863 143.549 158.585 145.735Z" fill="#C378CB"/>
<path d="M170.698 248.103L153.618 281.562H129.134L143.438 239.062L87.5613 213.274C83.6246 211.457 80.2907 208.55 77.9538 204.898C75.617 201.246 74.3751 197.001 74.375 192.665C74.3749 188.275 75.6482 183.979 78.0406 180.298L83.7914 171.448L122.188 177.358V191.25L159.725 212.101C162.968 213.903 165.806 216.351 168.064 219.295C170.322 222.238 171.951 225.614 172.851 229.212C174.439 235.563 173.674 242.273 170.698 248.103V248.103Z" fill="#BC4598"/>
<path d="M114.469 192.961L103.328 187.747C102.067 187.119 101.106 186.017 100.658 184.681C100.21 183.345 100.31 181.886 100.938 180.625C101.565 179.363 102.668 178.403 104.004 177.955C105.339 177.506 106.798 177.607 108.06 178.234L119.199 183.447C120.461 184.075 121.421 185.177 121.87 186.513C122.318 187.849 122.217 189.308 121.59 190.569C120.963 191.83 119.86 192.791 118.525 193.24C117.19 193.688 115.731 193.588 114.469 192.961V192.961Z" fill="#A33484"/>
<path d="M261.985 39.8343L207.188 79.6874L160.212 108.753L148.75 116.875C141.947 120.276 134.071 120.837 126.855 118.432L119.691 116.045L130.576 99.1059C132.063 96.7918 133.793 94.6439 135.738 92.699L137.48 90.9572C141.053 87.3842 145.295 84.5499 149.963 82.6163C154.631 80.6826 159.635 79.6873 164.688 79.6874L196.563 63.7499L223.125 47.8124L233.75 21.2499L239.063 31.8749L249.789 21.1489C250.384 20.5538 251.112 20.1086 251.913 19.85C252.714 19.5915 253.565 19.527 254.396 19.6619C255.227 19.7968 256.014 20.1272 256.692 20.6259C257.37 21.1246 257.92 21.7773 258.296 22.5302L263.609 33.1618C264.172 34.2863 264.318 35.5739 264.02 36.7957C263.723 38.0175 263.002 39.0942 261.985 39.8343V39.8343Z" fill="#FEC093"/>
</svg>
