<svg width="340" height="340" viewBox="0 0 340 340" fill="none" xmlns="http://www.w3.org/2000/svg">
<g filter="url(#filter0_d)">
<path d="M233.75 209.757L244.2 218.253C245.557 219.357 246.62 220.778 247.296 222.392C247.972 224.005 248.239 225.76 248.074 227.501L246.101 248.286C245.568 253.897 247.286 259.489 250.877 263.833C254.467 268.177 259.636 270.917 265.246 271.449L269.758 223.942C270.195 219.345 269.121 214.731 266.701 210.797C264.281 206.864 260.645 203.827 256.344 202.145L235.255 193.892L233.75 209.757Z" fill="#6E3C26"/>
<path d="M225.626 188.842C235.374 199.516 247.412 209.029 247.412 209.029C254.132 216.486 252.094 228.836 244.636 235.556C242.863 237.155 240.793 238.389 238.542 239.188C236.292 239.986 233.907 240.333 231.522 240.209C229.138 240.085 226.801 239.493 224.646 238.465C222.491 237.437 220.559 235.995 218.962 234.221L216.057 230.642L206.406 228.055L207.371 222.405L200.664 212.883C199.936 211.851 199.6 210.594 199.716 209.336C199.832 208.079 200.392 206.904 201.295 206.021L209.246 198.261L201.172 171.859L218.385 163.455L225.626 188.842Z" fill="#FEB784"/>
<path d="M229.385 202.068L236.823 203.172C238.342 203.25 239.783 203.869 240.886 204.916C241.989 205.963 242.682 207.37 242.839 208.883C242.997 210.396 242.609 211.915 241.745 213.167C240.881 214.419 239.598 215.321 238.127 215.71L236.621 216.109L238.7 239.134C247.06 236.724 258.974 229.325 258.678 214.282C258.262 193.105 225.626 188.841 225.626 188.841L229.385 202.068Z" fill="#6E3C26"/>
<path d="M324.013 266.377C323.795 267.804 323.068 269.103 321.966 270.035C320.865 270.967 319.463 271.47 318.02 271.449H288.929C287.607 271.449 286.333 270.956 285.355 270.068L228.438 218.324L201.875 181.136L185.938 183.793L183.972 184.118C182.928 184.295 181.87 184.384 180.811 184.384C177.542 184.381 174.328 183.544 171.473 181.95C168.619 180.357 166.219 178.061 164.501 175.279C162.784 172.498 161.805 169.324 161.659 166.058C161.512 162.792 162.203 159.543 163.665 156.619L164.688 154.574L160.026 147.581L154.063 138.636L148.75 112.074L148.577 111.988L138.125 106.761L63.0063 219.44L42.5 250.199L60.1176 259.011C61.3569 259.629 62.3691 260.622 63.0096 261.85C63.6501 263.078 63.886 264.476 63.6836 265.846C63.4198 267.428 62.5982 268.862 61.3679 269.89C60.1375 270.918 58.5796 271.471 56.9766 271.449H15.9375V256.758C15.9375 255.938 16.1273 255.129 16.492 254.395L36.7625 213.569L53.125 180.625L74.375 148.75L100.054 93.5266C104.132 84.7601 110.182 77.0554 117.732 71.0149C121.199 68.2413 125.187 66.1924 129.461 64.9901C133.735 63.7878 138.207 63.4564 142.612 64.0157C147.016 64.5751 151.264 66.0136 155.102 68.2461C158.939 70.4785 162.29 73.4592 164.953 77.0114L175.313 90.8239L182.119 102.166L191.25 117.386L194.351 121.006L208.044 136.976L223.125 154.574L255 207.699L297.5 255.511L319.368 259.881C320.821 260.174 322.109 261.007 322.971 262.213C323.834 263.419 324.206 264.907 324.013 266.377V266.377Z" fill="#FEC093"/>
<path d="M201.137 170.087C199.57 167.608 196.29 166.868 193.811 168.435C191.331 170.002 190.592 173.282 192.158 175.761L194.453 179.392C196.02 181.872 199.3 182.611 201.779 181.045C204.259 179.478 204.998 176.198 203.432 173.719L201.137 170.087Z" fill="#F7B488"/>
<path d="M185.938 183.793L183.972 184.118C182.928 184.295 181.87 184.384 180.811 184.384C177.542 184.381 174.328 183.544 171.473 181.951C168.619 180.357 166.219 178.061 164.501 175.279C162.784 172.498 161.805 169.324 161.659 166.058C161.512 162.792 162.203 159.543 163.665 156.619L164.688 154.574L160.026 147.581L193.906 121.371L194.351 121.006L208.044 136.976C180.685 156.221 185.938 183.793 185.938 183.793Z" fill="#C378CB"/>
<path d="M175.312 90.8239L148.75 111.563L148.577 111.988L138.125 106.761L63.0062 219.44L61.7578 219.141L36.7625 213.569L53.1249 180.625L74.3749 148.75L100.054 93.5266C104.132 84.7601 110.182 77.0554 117.732 71.0149C121.198 68.2413 125.187 66.1924 129.461 64.9901C133.735 63.7878 138.207 63.4564 142.612 64.0157C147.016 64.5751 151.264 66.0136 155.101 68.2461C158.939 70.4785 162.289 73.4592 164.953 77.0114L175.312 90.8239Z" fill="#BC4598"/>
<path d="M138.125 106.582C136.865 105.952 135.906 104.847 135.461 103.51C135.015 102.174 135.119 100.715 135.749 99.4546L138.685 93.2503C139.315 91.9901 140.42 91.0317 141.756 90.5861C143.093 90.1406 144.552 90.2442 145.812 90.8743C147.072 91.5043 148.031 92.6092 148.476 93.9459C148.922 95.2825 148.818 96.7414 148.188 98.0016L145.252 104.206C144.622 105.466 143.517 106.425 142.181 106.87C140.844 107.316 139.385 107.212 138.125 106.582Z" fill="#A33484"/>
</g>
<defs>
<filter id="filter0_d" x="-4" y="0" width="348" height="348" filterUnits="userSpaceOnUse" color-interpolation-filters="sRGB">
<feFlood flood-opacity="0" result="BackgroundImageFix"/>
<feColorMatrix in="SourceAlpha" type="matrix" values="0 0 0 0 0 0 0 0 0 0 0 0 0 0 0 0 0 0 127 0"/>
<feOffset dy="4"/>
<feGaussianBlur stdDeviation="2"/>
<feColorMatrix type="matrix" values="0 0 0 0 0 0 0 0 0 0 0 0 0 0 0 0 0 0 0.25 0"/>
<feBlend mode="normal" in2="BackgroundImageFix" result="effect1_dropShadow"/>
<feBlend mode="normal" in="SourceGraphic" in2="effect1_dropShadow" result="shape"/>
</filter>
</defs>
</svg>
