<svg width="340" height="340" viewBox="0 0 340 340" fill="none" xmlns="http://www.w3.org/2000/svg">
<path d="M249.688 191.25L233.75 201.875L222.461 181.289L207.188 132.812L196.562 95.625L185.938 116.875H154.062L143.438 95.625L132.812 132.812L117.539 181.289L106.25 201.875L90.3125 191.25L103.594 170L116.875 127.5L124.91 87.1914C126.371 79.7539 132.945 74.375 140.516 74.375H159.375V47.8125H180.625V74.375H199.418C206.988 74.375 213.562 79.7539 215.023 87.1914L223.125 127.5L236.406 170L249.688 191.25Z" fill="#FEC093"/>
<path d="M180.625 47.8125V63.75C176.242 69.5938 167.875 70.7891 162.031 66.4063C161.035 65.6758 160.105 64.7461 159.375 63.75V47.8125H180.625Z" fill="#F7B488"/>
<path d="M177.969 21.25H188.594C200.348 21.25 209.844 30.7461 209.844 42.5V63.75L215.156 69.0625C203.402 69.0625 193.906 59.5664 193.906 47.8125V37.1875L177.969 31.875V21.25Z" fill="#61311C"/>
<path d="M154.062 49.0078H159.375V37.9844H154.062C151.074 38.0508 148.683 40.5078 148.75 43.4961C148.683 46.4844 151.074 49.0078 154.062 49.0078Z" fill="#FEB784"/>
<path d="M185.937 37.9844H180.625V49.0078H185.937C188.926 48.9414 191.316 46.4844 191.25 43.4961C191.316 40.5078 188.926 38.0508 185.937 37.9844V37.9844Z" fill="#FEB784"/>
<path d="M170 63.75C163.625 63.6836 158.18 59.2344 156.785 53.0586L156.387 51.332C156.055 49.8047 155.855 48.2773 155.855 46.75V37.9844C155.855 29.8828 162.23 23.2422 170 23.2422C177.836 23.2422 184.145 29.8164 184.145 37.9844V46.6836C184.145 48.2109 183.945 49.7383 183.613 51.2656L183.215 52.9922C181.82 59.2344 176.375 63.6836 170 63.75V63.75Z" fill="#FEC093"/>
<path d="M173.52 26.9609C173.52 26.9609 177.039 34.332 186.668 44.0273C187.332 40.8398 187.664 37.5859 187.664 34.332C187.664 24.1719 179.762 15.9375 169.934 15.9375C160.172 15.9375 152.203 24.1719 152.203 34.332C152.203 36.1914 152.336 38.1172 152.535 39.9766C158.113 37.918 165.883 37.0547 173.52 26.9609V26.9609Z" fill="#6E3C26"/>
<path d="M183.68 74.375H188.262L192.844 93.2344L194.238 95.4258C198.688 102.332 197.426 111.363 191.316 116.809H148.816C142.707 111.363 141.445 102.266 145.895 95.4258L147.289 93.2344L151.871 74.375H156.453L157.516 79.8867C158.645 85.9297 163.957 90.3125 170.133 90.3125C176.309 90.3125 181.621 85.9297 182.75 79.8867L183.68 74.375Z" fill="#C378CB"/>
<path d="M189.125 276.25L185.938 302.812L196.563 318.75V324.062H180.625L170 313.438L159.375 324.062H143.438V318.75L154.063 302.812L150.875 276.25L140.117 186.668C139.785 183.68 139.586 180.758 139.586 177.77C139.586 169.734 140.914 161.699 143.438 154.062L151.406 132.812L148.75 116.875H191.25L188.594 132.812L196.563 154.062C200.082 164.555 201.211 175.711 199.883 186.668L189.125 276.25Z" fill="#FEC093"/>
<path d="M164.688 132.812H175.312V154.062H164.688V132.812Z" fill="#F7B488"/>
<path d="M199.883 186.668L189.125 276.25H150.875L140.117 186.668C139.785 183.68 139.586 180.758 139.586 177.77C139.586 169.734 140.914 161.699 143.438 154.062H196.563C200.082 164.555 201.211 175.711 199.883 186.668V186.668Z" fill="#B03B8D"/>
<path d="M164.688 180.625H175.312V276.25H164.688V180.625Z" fill="#A33484"/>
<path d="M164.688 276.25H175.312V308.125C175.312 311.047 172.922 313.438 170 313.438C167.078 313.438 164.688 311.047 164.688 308.125V276.25Z" fill="#F5A76E"/>
</svg>
