<svg width="845" height="450" xmlns="http://www.w3.org/2000/svg" xmlns:xlink="http://www.w3.org/1999/xlink" overflow="hidden"><defs><clipPath id="clip0"><path d="M168 146 1013 146 1013 596 168 596Z" fill-rule="evenodd" clip-rule="evenodd"/></clipPath><clipPath id="clip1"><path d="M168 147 1012 147 1012 596 168 596Z" fill-rule="evenodd" clip-rule="evenodd"/></clipPath><clipPath id="clip2"><path d="M168 147 1012 147 1012 596 168 596Z" fill-rule="evenodd" clip-rule="evenodd"/></clipPath></defs><g clip-path="url(#clip0)" transform="translate(-168 -146)"><g clip-path="url(#clip1)"><g clip-path="url(#clip2)"><path d="M111.901-193.699C138.964-178.495 150.519-135.923 161.466-99.1298 172.109-62.3363 182.143-31.3202 192.178 5.77751 202.213 42.8752 212.551 85.7504 203.125 124.977 193.699 164.203 165.115 200.084 128.017 224.715 90.9197 249.345 45.3078 263.029 1.82448 259.988-41.9629 256.947-83.6218 237.182-105.82 203.733-127.713 170.284-130.146 123.456-146.262 87.2708-162.682 50.7812-192.786 25.5427-202.213-5.47343-211.639-36.4895-200.388-72.6749-183.664-108.556-167.244-144.134-145.35-179.407-114.03-191.874-82.4055-204.341-41.3548-194.307 0.608159-195.523 42.5711-196.435 85.1422-208.598 111.901-193.699Z" fill="#00D075" transform="matrix(-4.37114e-08 1 -1.75229 -7.65952e-08 638.897 374.026)"/></g></g></g></svg>