<svg width="208" height="230" viewBox="0 0 208 230" fill="none" xmlns="http://www.w3.org/2000/svg">
<g clip-path="url(#clip0)">
<path d="M176.046 175.117C152.52 180.788 126.054 213.702 114.112 228.652C113.061 229.916 111.394 230.29 109.981 229.576C108.568 228.863 107.731 227.225 107.908 225.519C110.992 169.684 135.414 136.493 139.323 131.536L176.046 175.117Z" fill="#E57E25"/>
<path d="M131.504 86.2106C101.237 115.397 91.339 188.918 88.219 226.114C88.0935 228.176 86.6185 229.823 84.7555 229.982C82.8924 230.141 81.2061 228.764 80.7955 226.749C74.4643 196.968 71.4177 166.449 71.7224 135.859C71.7224 130.783 71.8659 125.866 72.1528 121.147H72.6907C73.9602 121.107 75.0609 120.165 75.4131 118.815C75.7652 117.466 75.288 116.02 74.2328 115.238L72.6549 113.93C77.1735 62.1399 96.6824 34.5003 101.058 28.8693L131.504 86.2106Z" fill="#D25627"/>
<path d="M62.8643 121.186C48.1609 142.997 55.2615 200.735 59.0629 225.043C59.4355 226.715 58.7897 228.462 57.4646 229.366C56.1395 230.271 54.4379 230.126 53.2533 229.009C14.3788 190.028 10.1112 130.545 10.7567 120.393V120.155L62.8643 121.147V121.186Z" fill="#E57E25"/>
<path d="M169.878 51.6716L146.388 60.5543C145.117 61.0434 144.229 62.3211 144.129 63.8061L141.762 92.3181C141.703 93.8557 140.752 95.1749 139.41 95.5821C138.068 95.9893 136.642 95.3914 135.881 94.1026L131.506 86.2112L123.365 71.4595C122.639 70.133 121.196 69.5142 119.851 69.9526L96.863 77.6457C95.5211 78.0273 94.1088 77.4193 93.3534 76.135C92.5981 74.8507 92.6682 73.1766 93.5278 71.975L108.948 48.975C109.769 47.7973 109.882 46.1942 109.235 44.8905L101.059 28.8698L97.0423 20.9785C96.3562 19.6419 96.486 17.976 97.3687 16.7889C98.2514 15.6018 99.7044 15.139 101.023 15.625L122.899 24.8647C124.212 25.3727 125.672 24.8933 126.521 23.675L142.264 1.42846C143.093 0.163691 144.586 -0.32816 145.905 0.229301C147.224 0.786763 148.04 2.25452 147.895 3.80777L146.245 31.9629C146.117 33.5153 146.938 34.9726 148.253 35.5319L170.129 44.7716C171.39 45.3874 172.182 46.793 172.127 48.316C172.071 49.839 171.18 51.1697 169.878 51.6716Z" fill="#F0C419"/>
<path d="M206.385 131.814L185.154 146.09C184.034 146.885 183.422 148.316 183.576 149.778L186.84 178.21C187.052 179.721 186.371 181.213 185.147 181.921C183.922 182.63 182.425 182.397 181.425 181.343L176.045 175.117L164.821 162.19C163.857 161.056 162.318 160.794 161.091 161.555L140.147 174.523C138.907 175.234 137.394 174.982 136.398 173.899C135.403 172.815 135.15 171.147 135.772 169.764L146.387 143.631C146.926 142.294 146.716 140.733 145.849 139.626L139.323 131.536L129.317 119.124C128.388 117.988 128.19 116.336 128.819 114.972C129.448 113.608 130.773 112.814 132.15 112.978L155.317 116.785C156.709 116.991 158.061 116.172 158.652 114.762L169.662 89.3036C170.232 87.8705 171.599 87.0369 172.999 87.2687C174.399 87.5004 175.486 88.7402 175.651 90.295L179.488 118.212C179.686 119.748 180.759 120.966 182.142 121.226L205.309 125.033C206.663 125.326 207.714 126.512 207.953 128.015C208.191 129.518 207.568 131.028 206.385 131.814Z" fill="#F0C419"/>
<path d="M72.6916 121.147H50.8516C49.5734 121.144 48.4608 122.112 48.162 123.486L42.6751 146.843C42.3234 148.195 41.2199 149.139 39.9483 149.175C38.6768 149.211 37.5307 148.332 37.1165 147.002L28.2585 122.892C27.8164 121.636 26.7501 120.782 25.533 120.711L10.7578 120.155L2.97576 119.838C1.71349 119.793 0.606864 118.893 0.193204 117.573C-0.220456 116.254 0.144527 114.789 1.11093 113.89L17.9302 99.495C18.9397 98.6245 19.3055 97.1199 18.8268 95.807L10.6502 71.776C10.1711 70.4575 10.5434 68.9475 11.5613 68.0802C12.5793 67.2129 13.9946 67.1999 15.0254 68.0484L33.9965 82.8398C35.0413 83.6614 36.4458 83.6454 37.4751 82.8001L54.2944 68.4053C55.3247 67.6053 56.6935 67.587 57.741 68.3592C58.7885 69.1314 59.2997 70.5356 59.0282 71.8949L54.1151 96.2432C53.8616 97.5707 54.3396 98.9387 55.3344 99.7329L72.6558 113.929L74.2337 115.238C75.2889 116.02 75.7661 117.466 75.414 118.815C75.0618 120.164 73.9611 121.107 72.6916 121.147Z" fill="#F0C419"/>
</g>
<defs>
<clipPath id="clip0">
<rect width="208" height="230" fill="white"/>
</clipPath>
</defs>
</svg>
