<svg width="382" height="371" viewBox="0 0 382 371" fill="none" xmlns="http://www.w3.org/2000/svg">
<path d="M179.062 55.0703H191V66.6641H179.062V84.0547C179.062 88.667 177.176 93.0903 173.818 96.3517C170.46 99.6131 165.905 101.445 161.156 101.445V72.4609C161.156 67.8487 163.043 63.4253 166.401 60.1639C169.759 56.9025 174.313 55.0703 179.062 55.0703V55.0703Z" fill="#61311C"/>
<path d="M167.125 127.531L144.406 101.061C139.496 95.3338 136.966 88.0306 137.314 80.5849C137.662 73.1392 140.862 66.0885 146.287 60.8165L179.062 28.9844L184.009 19.3688C184.317 18.774 184.789 18.274 185.373 17.9246C185.957 17.5753 186.629 17.3904 187.314 17.3906C188.291 17.3927 189.227 17.7705 189.918 18.4414C190.609 19.1122 190.998 20.0215 191 20.9702C191 20.5001 191.095 20.0345 191.28 19.6001C191.465 19.1658 191.737 18.7711 192.079 18.4386C192.421 18.1062 192.828 17.8425 193.275 17.6627C193.722 17.4829 194.202 17.3904 194.686 17.3906C195.371 17.3877 196.044 17.5736 196.626 17.9268C197.21 18.2753 197.682 18.7745 197.991 19.3688L202.937 28.9844L235.713 60.8165C241.139 66.0883 244.339 73.139 244.687 80.5849C245.035 88.0307 242.505 95.334 237.594 101.061L214.875 127.531L208.906 144.922V156.516L220.844 179.703L260.916 208.89C263.759 210.959 265.955 213.754 267.26 216.963C268.564 220.172 268.925 223.67 268.303 227.067C267.681 230.464 266.101 233.627 263.737 236.203C261.374 238.779 258.321 240.667 254.918 241.657L226.954 249.802L208.906 255.063L196.969 266.656H191V353.609H167.125V342.016L173.094 330.422L169.609 289.844L167.125 260.859L161.156 202.891V194.804C161.165 181.178 165.318 167.858 173.094 156.516V144.922L167.125 127.531ZM218.546 230.984L238.75 226.078L191 202.891V237.672L218.546 230.984ZM182.047 104.344V89.8516H199.953V104.344H208.906L226.812 81.1563L191 40.5781L155.187 81.1563L173.094 104.344H182.047Z" fill="#FEC093"/>
<path d="M208.906 104.344V115.938L212.935 123.767C214.21 126.242 214.874 128.97 214.875 131.738C214.875 134.079 214.401 136.398 213.478 138.561C212.555 140.725 211.203 142.69 209.498 144.346L208.906 144.922H173.094L172.502 144.347C170.797 142.692 169.445 140.726 168.522 138.563C167.599 136.399 167.125 134.081 167.125 131.739C167.126 128.972 167.79 126.243 169.065 123.768L173.094 115.938V104.344H179.062L183.144 116.235C183.693 117.837 184.748 119.229 186.158 120.216C187.568 121.203 189.262 121.734 191 121.734C192.738 121.734 194.432 121.203 195.842 120.216C197.252 119.229 198.307 117.837 198.856 116.235L202.938 104.344H208.906Z" fill="#C378CB"/>
<path d="M161.156 194.804V202.891L167.125 260.859L169.609 289.844H191V202.891L238.75 226.078L218.545 230.984L220.843 231.875L226.812 249.266L226.954 249.802L254.917 241.657C258.319 240.665 261.371 238.776 263.733 236.2C266.095 233.624 267.675 230.462 268.297 227.066C268.918 223.67 268.558 220.173 267.255 216.964C265.952 213.755 263.757 210.96 260.916 208.89L220.843 179.703L217.859 173.906H164.498C162.284 180.664 161.157 187.713 161.156 194.804Z" fill="#BC4598"/>
<path d="M176.078 69.5625V81.1563C176.078 84.9998 177.65 88.686 180.449 91.4038C183.247 94.1216 187.042 95.6484 191 95.6484C194.958 95.6484 198.753 94.1216 201.551 91.4038C204.35 88.686 205.922 84.9998 205.922 81.1563V69.5625C205.921 66.6967 205.046 63.8954 203.406 61.5127C201.766 59.13 199.436 57.273 196.71 56.1764C193.984 55.0798 190.984 54.7928 188.09 55.3517C185.196 55.9106 182.537 57.2904 180.45 59.3165C177.768 61.9281 176.21 65.4335 176.093 69.1205C176.078 69.2654 176.078 69.4176 176.078 69.5625V69.5625Z" fill="#FEC093"/>
<path d="M176.093 69.1205V74.6565C179.839 73.0368 183.012 70.3834 185.218 67.0264C193.238 72.6421 201.833 74.5551 205.922 74.6565V69.5625C205.921 66.6967 205.046 63.8953 203.406 61.5127C201.766 59.13 199.436 57.273 196.71 56.1764C193.984 55.0798 190.984 54.7928 188.09 55.3517C185.196 55.9106 182.537 57.2904 180.45 59.3165C177.768 61.9281 176.21 65.4335 176.093 69.1205V69.1205Z" fill="#6E3C26"/>
<path d="M185.031 26.7663C185.031 23.5648 187.704 20.9695 191 20.9695C194.296 20.9695 196.969 23.5648 196.969 26.7663V34.7813C196.969 37.9828 194.296 40.5781 191 40.5781C187.704 40.5781 185.031 37.9828 185.031 34.7813V26.7663Z" fill="#F5A76E"/>
</svg>
