<svg width="340" height="340" viewBox="0 0 340 340" fill="none" xmlns="http://www.w3.org/2000/svg">
<path d="M164.688 191.25L154.063 207.188H196.563V175.312L199.166 174.011C201.342 172.921 203.21 171.302 204.597 169.301C205.984 167.301 206.845 164.984 207.102 162.563C207.358 160.143 207.002 157.697 206.065 155.45C205.129 153.203 203.642 151.228 201.742 149.706L197.725 146.492L180.625 132.812V116.875H159.375L154.914 143.637C154.361 146.959 154.874 150.372 156.38 153.384L163.745 168.114L164.688 170V191.25Z" fill="#FEC093"/>
<path d="M165.716 117.212L156.021 86.8468C154.099 78.9398 159.752 72.2374 168.224 69.714C170.067 69.1625 171.997 68.9598 173.915 69.1163C176.039 69.2914 178.107 69.8938 179.993 70.8874C183.743 72.8694 186.564 76.2472 187.845 80.2912L188.542 82.4746L196.562 90.1027L192.042 94.8667L194.465 102.456C194.894 103.798 194.772 105.256 194.126 106.508C193.479 107.76 192.362 108.704 191.02 109.133L185.959 110.748C185.938 111.563 180.625 132.813 180.625 132.813H159.375L165.716 117.212Z" fill="#FEB784"/>
<path d="M127.5 138.125H116.875L122.188 127.5V95.625C122.188 91.3981 123.867 87.3443 126.855 84.3555C129.844 81.3666 133.898 79.6875 138.125 79.6875H159.375V90.3125L143.438 95.625V122.188C143.438 126.414 141.758 130.468 138.77 133.457C135.781 136.446 131.727 138.125 127.5 138.125Z" fill="#61311C"/>
<path d="M166.985 100.887L162.673 98.6153C161.811 98.1584 161.082 97.4879 160.554 96.6682C160.026 95.8485 159.717 94.9069 159.657 93.9337C159.595 93.0994 159.724 92.262 160.033 91.4848C160.342 90.7076 160.825 90.0111 161.443 89.4479C162.062 88.8848 162.801 88.4699 163.603 88.2346C164.406 87.9993 165.252 87.9498 166.077 88.0899L167.413 88.3223L173.918 69.1137C171.9 68.9495 169.869 69.1832 167.941 69.8016L161.102 71.9844C160.833 72.0703 160.567 72.1613 160.305 72.2573C149.256 76.2889 144.29 89.3105 149.289 100.175L149.577 100.739C153.413 108.243 158.315 113.316 165.714 117.213L166.985 100.887Z" fill="#6E3C26"/>
<path d="M31.875 307.019V324.063H63.75V318.75L53.125 308.125L89.5223 293.569L132.813 276.25L180.625 249.688L265.625 239.063V317.887C265.625 319.525 266.276 321.095 267.434 322.254C268.592 323.412 270.163 324.063 271.801 324.063H301.754C303.214 324.083 304.635 323.597 305.777 322.686C306.918 321.776 307.708 320.498 308.013 319.07C308.296 317.598 308.035 316.073 307.279 314.779C306.523 313.484 305.323 312.508 303.902 312.031L292.188 308.125L286.875 302.813L288.509 281.563L291.603 241.32C291.886 237.643 291.406 233.947 290.193 230.464C288.98 226.981 287.06 223.786 284.554 221.08C282.049 218.374 279.01 216.215 275.631 214.739C272.251 213.262 268.603 212.5 264.914 212.5H196.562V207.188H154.062L143.437 228.438L100.937 260.313L82.5961 270.187L40.2561 292.984C37.722 294.349 35.6047 296.374 34.1291 298.845C32.6534 301.317 31.8745 304.141 31.875 307.019V307.019Z" fill="#FEC093"/>
<path d="M180.625 170V79.6875L175.312 42.5V26.5625L170 15.9375H154.062V42.5L159.375 79.6875L155.043 144.663C154.865 147.344 155.368 150.027 156.504 152.462L164.688 170H180.625Z" fill="#FEC093"/>
<path d="M82.5962 270.187L83.672 274.258L89.5224 293.569L132.813 276.25L180.625 249.687L265.625 239.062V281.562H288.509L291.603 241.32C291.886 237.643 291.406 233.947 290.193 230.464C288.98 226.981 287.061 223.786 284.555 221.08C282.049 218.374 279.011 216.215 275.631 214.739C272.251 213.262 268.603 212.5 264.915 212.5H196.563V207.188H154.063L143.438 228.437L100.938 260.312L82.5962 270.187Z" fill="#BC4598"/>
<path d="M163.745 168.114L164.688 170V180.625H196.563V175.312L199.166 174.011C201.342 172.921 203.21 171.302 204.597 169.301C205.984 167.301 206.845 164.984 207.102 162.563C207.358 160.143 207.002 157.697 206.065 155.45C205.129 153.203 203.642 151.228 201.742 149.706L197.725 146.492C192.817 154.614 181.223 163.658 163.745 168.114V168.114Z" fill="#C378CB"/>
</svg>
