<svg width="340" height="340" viewBox="0 0 340 340" fill="none" xmlns="http://www.w3.org/2000/svg">
<path d="M138.125 111.562H127.5L132.812 100.938V69.0625C132.812 64.8356 134.492 60.7818 137.48 57.793C140.469 54.8041 144.523 53.125 148.75 53.125H170V63.75L154.062 69.0625V95.625C154.062 99.8519 152.383 103.906 149.395 106.895C146.406 109.883 142.352 111.562 138.125 111.562Z" fill="#61311C"/>
<path d="M42.5 106.249L79.6875 111.562L148.75 106.958L170 106.249L173.32 89.4815C169.461 84.159 163.186 71.9224 162.363 66.0733C160.869 55.4483 170.377 45.6773 178.851 43.1492C180.693 42.5976 182.623 42.395 184.54 42.5515C186.665 42.7266 188.732 43.329 190.618 44.3226C194.369 46.3049 197.189 49.6826 198.47 53.7264L199.168 55.9098L207.188 63.5392L202.667 68.3032L205.09 75.8928C205.519 77.235 205.397 78.6925 204.751 79.9445C204.104 81.1966 202.987 82.1408 201.645 82.5693L196.584 84.1849C196.568 84.7826 192.77 98.613 191.25 106.249L192.216 107.022L260.312 111.562L297.5 106.249H324.062V122.187L313.438 127.499H297.5L260.312 132.812H217.716C218.059 135.77 217.482 138.762 216.064 141.381C214.646 143.999 212.455 146.118 209.791 147.448L207.188 148.749V180.624H164.688L170 159.374L164.688 138.124L148.75 132.812H79.6875L42.5 127.499H26.5625L15.9375 122.187V106.249H42.5Z" fill="#FEC093"/>
<path d="M164.687 138.125L168.672 154.062H207.188V148.75L209.791 147.448C211.967 146.359 213.835 144.739 215.222 142.739C216.609 140.739 217.47 138.421 217.727 136.001C217.983 133.58 217.627 131.134 216.69 128.887C215.754 126.641 214.267 124.665 212.367 123.144L191.25 106.25C191.25 106.25 196.563 127.5 170 106.25L172.059 110.367C174.424 115.097 174.98 120.529 173.623 125.64C172.265 130.752 169.088 135.191 164.687 138.125V138.125Z" fill="#C378CB"/>
<path d="M177.61 74.3246L173.298 72.0528C172.436 71.5959 171.707 70.9254 171.179 70.1057C170.651 69.286 170.342 68.3444 170.282 67.3712C170.22 66.5369 170.349 65.6995 170.658 64.9223C170.967 64.1451 171.45 63.4486 172.068 62.8854C172.687 62.3223 173.426 61.9074 174.228 61.6721C175.031 61.4368 175.877 61.3873 176.702 61.5274L178.038 61.7598L184.543 42.5512C182.525 42.387 180.494 42.6207 178.566 43.2391L171.727 45.4219C171.458 45.5078 171.192 45.5988 170.93 45.6948C159.881 49.7264 154.915 62.748 159.914 73.6127L160.202 74.1765C164.039 81.6797 165.921 85.5851 173.32 89.4825L177.61 74.3246Z" fill="#6E3C26"/>
<path d="M21.25 270.938V297.5H53.125V292.188L42.5 281.562L73.4785 271.781L143.437 249.688L191.25 223.125L276.25 212.5V291.324C276.25 292.962 276.901 294.533 278.059 295.691C279.217 296.849 280.788 297.5 282.426 297.5H312.574C314.04 297.499 315.457 296.976 316.572 296.026C317.688 295.076 318.429 293.76 318.664 292.313C318.899 290.867 318.612 289.384 317.854 288.13C317.096 286.876 315.916 285.932 314.527 285.467L302.812 281.562L297.5 276.25L299.114 255.272L302.228 214.758C302.511 211.081 302.031 207.384 300.818 203.901C299.605 200.418 297.685 197.224 295.179 194.518C292.674 191.812 289.635 189.653 286.256 188.176C282.876 186.7 279.228 185.937 275.539 185.938H207.187V180.625H164.687L154.062 201.875L111.562 233.75L69.348 251.129L21.25 270.938Z" fill="#FEC093"/>
<path d="M69.3479 251.129L73.4784 271.781L143.437 249.688L191.25 223.125L276.25 212.5V255H297.5L299.114 255.272L302.228 214.758C302.511 211.081 302.031 207.384 300.818 203.901C299.605 200.418 297.685 197.224 295.179 194.518C292.673 191.812 289.635 189.653 286.256 188.176C282.876 186.7 279.227 185.937 275.539 185.938H207.187V180.625H164.687L154.062 201.875L111.562 233.75L69.3479 251.129Z" fill="#BC4598"/>
</svg>
