<svg width="702" height="708" viewBox="0 0 702 708" fill="none" xmlns="http://www.w3.org/2000/svg">
<g filter="url(#filter0_d)">
<path d="M351.014 699.981C542.647 699.981 697.996 543.289 697.996 350C697.996 156.71 542.647 0.0180969 351.014 0.0180969C159.381 0.0180969 4.03223 156.71 4.03223 350C4.03223 543.289 159.381 699.981 351.014 699.981Z" fill="#AF469A"/>
<path d="M351.014 699.981C542.647 699.981 697.996 543.289 697.996 350C697.996 156.71 542.647 0.0180969 351.014 0.0180969C159.381 0.0180969 4.03223 156.71 4.03223 350C4.03223 543.289 159.381 699.981 351.014 699.981Z" fill="#00D075"/>
<path d="M351.017 632.243C505.559 632.243 630.841 505.879 630.841 350C630.841 194.121 505.559 67.7568 351.017 67.7568C196.474 67.7568 71.1929 194.121 71.1929 350C71.1929 505.879 196.474 632.243 351.017 632.243Z" fill="#279ED6"/>
<path d="M351.017 632.243C505.559 632.243 630.841 505.879 630.841 350C630.841 194.121 505.559 67.7568 351.017 67.7568C196.474 67.7568 71.1929 194.121 71.1929 350C71.1929 505.879 196.474 632.243 351.017 632.243Z" fill="#04AE64"/>
<path d="M351.017 564.505C468.469 564.505 563.683 468.468 563.683 350C563.683 231.532 468.469 135.495 351.017 135.495C233.565 135.495 138.351 231.532 138.351 350C138.351 468.468 233.565 564.505 351.017 564.505Z" fill="#048C51"/>
<path d="M351.017 496.766C431.379 496.766 496.525 431.057 496.525 350C496.525 268.943 431.379 203.234 351.017 203.234C270.655 203.234 205.508 268.943 205.508 350C205.508 431.057 270.655 496.766 351.017 496.766Z" fill="#017140"/>
<path d="M419.238 195.556C419.238 231.046 407.747 253.174 397.789 275.982C380.935 314.587 321.119 314.634 304.244 275.982C297.303 260.082 279.576 225.133 283.103 189.545C286.365 158.286 315.002 132.997 351.017 132.997C388.058 132.997 419.238 160.41 419.238 195.556Z" fill="#F9CFAC"/>
<path d="M418.93 189.545C417.054 219.344 407.88 237.344 397.789 260.458C380.936 299.064 321.119 299.11 304.244 260.458C293.965 236.915 285.019 219.352 283.104 189.545C288.51 137.722 358.088 113.555 399.258 151.315C410.144 161.306 417.377 174.656 418.93 189.545Z" fill="#FFE4CC"/>
<path d="M419.238 195.556C419.238 205.268 418.299 214.643 416.594 223.428C408.616 197.819 382.749 178.156 351.017 178.156C319.372 178.156 293.352 197.737 285.303 223.428C283.509 214.091 282.368 204.748 282.643 195.63C283.742 159.309 312.972 132.997 351.015 132.997C388.438 132.997 419.238 160.75 419.238 195.556Z" fill="#605E5D"/>
<path d="M419.239 195.556C419.239 212.977 421.097 194.169 401.47 176.138C373.622 150.609 328.429 150.594 300.565 176.138C281.031 194.051 282.796 212.961 282.796 195.556C282.796 161.323 312.877 132.496 350.921 132.496C388.342 132.496 419.239 160.75 419.239 195.556Z" fill="#605E5D"/>
<path d="M453.642 313.929C448.241 308.468 441.274 305.518 434.18 305.081C432.892 304.993 443.771 305.025 269.714 305.025C261.865 305.025 254.182 308.073 248.391 313.929C235.17 330.603 236.398 329.046 235.701 329.947C253.73 427.308 265.737 393.447 265.737 545.846H436.296C436.296 451.557 439.813 434.598 448.857 401.001C465.325 341.904 460.208 355.477 461.365 353.711C463.807 343.281 466.332 330.295 466.332 329.918C465.637 329.063 467.218 331.05 453.642 313.929Z" fill="#60519D"/>
<path d="M436.935 312.48C432.016 307.504 425.547 305.023 419.09 305.023C404.738 305.023 299.892 305.023 285.391 305.023C268.168 305.023 265.157 312.319 254.479 325.885C266.745 391.899 278.265 389.874 279.291 469.533C279.802 509.139 311.749 540.988 351.018 540.988C390.178 540.988 422.234 509.247 422.746 469.533C423.354 422.284 427.395 405.32 433.01 385.089C444.64 343.242 442.616 348.129 443.394 345.775C445.09 338.607 447.559 326.341 447.559 325.871C446.969 325.148 448.397 326.944 436.935 312.48Z" fill="#7861D5"/>
<path d="M289.469 364.394C249.415 404.796 262.101 391.998 214.575 439.937C201.927 452.694 184.815 459.92 166.949 460.089C144.94 460.089 140.263 460.625 38.957 460.625C15.996 460.625 -1.29429 438.726 5.49004 416.271C9.80633 401.759 23.0616 391.828 38.1455 391.828C46.0505 375.882 66.1279 370.406 80.7207 380.468C101.205 394.61 116.509 391.861 166.165 391.462L241.843 315.115C255.258 301.612 276.924 301.657 290.281 315.312C303.535 328.916 302.797 350.951 289.469 364.394Z" fill="#F9CFAC"/>
<path d="M589.781 637.424C589.781 671.961 562.035 699.982 527.759 699.982H174.274C124.804 699.982 95.7053 644.532 122.268 603.339C128.673 593.387 137.872 585.267 149.075 580.253L265.738 545.844H436.296L552.959 580.253C575.38 590.302 589.781 612.747 589.781 637.424Z" fill="#8664BD"/>
<path d="M589.336 629.978C585.677 660.796 559.683 685.016 527.759 685.016C512.139 685.016 499.395 672.251 499.395 656.406V630.341L519.178 620.364L396.772 638.001C386.302 639.51 375.624 637.762 366.165 632.991C349.034 624.352 332.399 624.764 317.871 632.091C307.316 637.414 295.273 638.961 283.723 636.464L163.071 610.386L202.639 630.341V656.406C202.639 672.207 189.939 685.016 174.274 685.016C142.418 685.016 116.367 660.865 112.698 629.978C115.268 608.219 129.039 589.221 149.075 580.253L265.737 545.844H436.296L552.959 580.253C573.077 589.27 586.764 608.277 589.336 629.978Z" fill="#9F7ADB"/>
<path d="M299.851 656.979C262.132 676.001 258.457 676.426 253.025 685.016C250.244 689.406 248.685 694.57 248.685 699.982H214.57V635.478C291.248 654.809 274.447 650.573 299.851 656.979Z" fill="#F9CFAC"/>
<path d="M487.462 635.478V699.982H248.685C248.685 689.328 254.721 679.739 263.944 675.088C307.077 653.334 295.349 660.003 317.038 645.417C334.693 633.558 359.943 640.912 367.005 662.316L368.068 665.571L487.462 635.478Z" fill="#F9CFAC"/>
<path d="M280.067 651.99C262.956 660.62 260.007 661.502 255.497 666.709C244.858 679 231.472 685.016 214.57 685.016V635.478L280.067 651.99Z" fill="#FFE4CC"/>
<path d="M487.462 635.478V685.016H266.258C260.908 685.016 258.879 677.642 263.942 675.088C307.076 653.334 295.347 660.003 317.036 645.417C334.692 633.558 359.942 640.912 367.003 662.316L368.066 665.57L487.462 635.478Z" fill="#FFE4CC"/>
<path d="M697.999 426.516C697.845 445.539 681.895 460.625 663.021 460.625C599.47 460.625 627.805 460.735 535.043 460.075C535.313 460.342 508.172 460.829 487.459 439.937C448.601 400.743 443.928 396.031 412.564 364.394C391.512 343.158 404.26 306.786 434.18 305.081C443.244 304.476 453.013 307.889 460.19 315.115L535.869 391.462C584.608 391.854 600.729 394.679 621.313 380.468C635.906 370.406 655.983 375.882 663.888 391.828C682.803 391.828 698.15 407.307 697.999 426.516Z" fill="#F9CFAC"/>
<path d="M298.452 329.312C295.052 341.109 297.155 336.886 214.574 420.18C201.42 433.448 183.697 440.288 166.795 440.346C72.631 440.665 100.559 440.868 38.9569 440.868C23.3847 440.868 9.79928 430.58 5.48999 416.271C9.80628 401.759 23.0615 391.828 38.1455 391.828C46.0505 375.882 66.1279 370.406 80.7207 380.468C101.205 394.61 116.509 391.861 166.165 391.462L241.843 315.115C260.361 296.477 291.372 305.087 298.452 329.312Z" fill="#FFE4CC"/>
<path d="M696.544 416.257C692.22 430.566 678.621 440.868 663.021 440.868C599.47 440.868 627.805 440.978 535.043 440.318C535.313 440.585 508.172 441.071 487.459 420.18C408.002 340.035 407.084 341.461 403.582 329.312C410.713 304.907 441.751 296.556 460.19 315.115L535.869 391.462C584.608 391.854 600.729 394.679 621.313 380.468C635.906 370.406 655.983 375.882 663.888 391.828C678.946 391.828 692.218 401.747 696.544 416.257Z" fill="#FFE4CC"/>
</g>
<defs>
<filter id="filter0_d" x="0" y="0" width="702" height="708" filterUnits="userSpaceOnUse" color-interpolation-filters="sRGB">
<feFlood flood-opacity="0" result="BackgroundImageFix"/>
<feColorMatrix in="SourceAlpha" type="matrix" values="0 0 0 0 0 0 0 0 0 0 0 0 0 0 0 0 0 0 127 0"/>
<feOffset dy="4"/>
<feGaussianBlur stdDeviation="2"/>
<feColorMatrix type="matrix" values="0 0 0 0 0 0 0 0 0 0 0 0 0 0 0 0 0 0 0.25 0"/>
<feBlend mode="normal" in2="BackgroundImageFix" result="effect1_dropShadow"/>
<feBlend mode="normal" in="SourceGraphic" in2="effect1_dropShadow" result="shape"/>
</filter>
</defs>
</svg>
