<?xml version="1.0" standalone="no"?>
<svg
  width="600"
  height="600"
  viewBox="0 0 600 600"
  xmlns="http://www.w3.org/2000/svg"
>
  <g transform="translate(300,300)">
    <path d="M146.5,-227.4C190.6,-199.6,227.6,-160.2,245,-114.2C262.3,-68.3,259.8,-15.6,248.3,32.8C236.8,81.2,216.3,125.4,184.8,158.1C153.3,190.8,110.9,212,66,225.4C21.1,238.9,-26.2,244.7,-68.3,232.4C-110.5,220.2,-147.4,190,-179.6,154.6C-211.7,119.3,-239,78.8,-252.5,31.9C-266,-14.9,-265.8,-68.1,-246.7,-113.7C-227.5,-159.4,-189.5,-197.5,-145.2,-225.3C-100.9,-253,-50.5,-270.5,0.4,-271.1C51.2,-271.6,102.4,-255.3,146.5,-227.4Z" fill="#00d075" />
  </g>
</svg>
  