<?xml version="1.0" encoding="iso-8859-1"?>
<!-- Generator: Adobe Illustrator 19.0.0, SVG Export Plug-In . SVG Version: 6.00 Build 0)  -->
<svg version="1.1" id="Capa_1" xmlns="http://www.w3.org/2000/svg" xmlns:xlink="http://www.w3.org/1999/xlink" x="0px" y="0px"
	 viewBox="0 0 512.001 512.001" style="enable-background:new 0 0 512.001 512.001;" xml:space="preserve">
<path style="fill:#FFC850;" d="M178.207,270.744c0.973,7.139,6.195,12.963,13.184,14.71l79.787,19.947
	c3.737,0.934,3.779,6.234,0.042,7.169c-21.175,5.294-60.431,15.108-79.874,19.968c-6.99,1.747-12.166,7.563-13.14,14.702
	l-21.152,155.113c-0.582,4.267-6.75,4.267-7.332,0l-21.151-155.11c-0.974-7.139-6.151-12.955-13.142-14.702
	c-19.444-4.859-58.701-14.672-79.876-19.966c-3.737-0.934-3.737-6.224,0-7.158c21.177-5.294,60.436-15.11,79.879-19.972
	c6.989-1.748,12.165-7.563,13.138-14.701l21.152-155.115c0.582-4.267,6.749-4.277,7.331-0.01
	C163.637,163.894,176.904,261.188,178.207,270.744z"/>
<path style="fill:#FFDC64;" d="M354.92,108.919c-4.66-1.118-8.141-4.846-8.79-9.415c-2.699-19.004-9.833-69.229-13.795-97.121
	c-0.452-3.185-5.049-3.173-5.502,0.012l-13.794,97.108c-0.648,4.568-4.1,8.29-8.759,9.409c-12.474,2.995-37.185,8.926-51.61,12.388
	c-2.831,0.68-2.831,4.69,0,5.37c14.424,3.462,39.134,9.392,51.609,12.384c4.66,1.118,8.112,4.84,8.761,9.409l13.754,96.827
	c0.459,3.23,5.123,3.23,5.582,0l13.754-96.829c0.649-4.569,4.101-8.291,8.76-9.409c12.464-2.991,37.14-8.913,51.57-12.376
	c2.841-0.682,2.804-4.714-0.037-5.396L354.92,108.919z"/>
<path style="fill:#FFF082;" d="M437.953,402.47c-3.728-0.909-6.513-3.937-7.032-7.65c-2.043-14.604-7.259-51.899-10.5-75.073
	c-0.445-3.183-5.036-3.128-5.481,0.055l-10.492,75.017c-0.519,3.712-3.28,6.736-7.007,7.645c-9.407,2.294-27.514,6.708-39.226,9.562
	c-2.82,0.687-2.82,4.681,0,5.368c11.711,2.855,29.817,7.267,39.225,9.56c3.729,0.908,6.49,3.932,7.009,7.645l10.491,75.014
	c0.445,3.183,5.044,3.183,5.489,0l10.492-75.015c0.519-3.712,3.28-6.736,7.008-7.645c9.407-2.293,27.512-6.706,39.223-9.56
	c2.82-0.687,2.786-4.689-0.034-5.376L437.953,402.47z"/>
<path style="fill:#EBAF4B;" d="M157.056,502.352l18.635-136.659c-20.206-40.974-35.147-83.487-44.554-113.76l-2.565,18.81
	c-0.974,7.138-6.149,12.953-13.138,14.701c-19.443,4.863-58.703,14.678-79.879,19.972c-3.737,0.935-3.737,6.224,0,7.158
	c21.176,5.294,60.432,15.108,79.876,19.966c6.991,1.747,12.168,7.563,13.142,14.702l21.151,155.11
	C150.305,506.619,156.474,506.619,157.056,502.352z"/>
<path style="fill:#FFC850;" d="M314.278,90.783l-1.239,8.721c-0.648,4.568-4.1,8.29-8.759,9.409
	c-12.474,2.995-37.186,8.925-51.61,12.388c-2.832,0.68-2.832,4.69,0,5.37c14.424,3.462,39.134,9.391,51.609,12.384
	c4.66,1.118,8.112,4.84,8.761,9.409l13.754,96.827c0.459,3.23,5.123,3.23,5.583,0l12.308-86.651
	C328.562,135.567,319.375,110.29,314.278,90.783z"/>
<path style="fill:#FFDC64;" d="M404.45,434.6l10.491,75.014c0.445,3.183,5.044,3.183,5.489,0l9.832-70.294
	c-14.762-16.341-21.839-35.866-25.146-49.263l-0.666,4.764c-0.519,3.712-3.28,6.736-7.007,7.645
	c-9.407,2.294-27.514,6.707-39.226,9.562c-2.82,0.687-2.82,4.681,0,5.368c11.711,2.855,29.817,7.268,39.225,9.56
	C401.169,427.863,403.93,430.887,404.45,434.6z"/>
<g>
</g>
<g>
</g>
<g>
</g>
<g>
</g>
<g>
</g>
<g>
</g>
<g>
</g>
<g>
</g>
<g>
</g>
<g>
</g>
<g>
</g>
<g>
</g>
<g>
</g>
<g>
</g>
<g>
</g>
</svg>
